# This file uses centimeters as units for non-parametric coordinates.

mtllib Peg.mtl
g default
v 0.912901 0.312283 -0.766731
v 0.716169 0.415599 -0.601616
v 0.206451 0.312281 -1.174162
v 0.161630 0.415593 -0.921569
v -0.596582 0.312278 -1.032176
v -0.468632 0.415587 -0.810215
v -1.120467 0.312277 -0.407260
v -0.879828 0.415582 -0.319988
v -1.120129 0.312277 0.408189
v -0.879900 0.415582 0.319790
v -0.595725 0.312278 1.032670
v -0.468814 0.415587 0.810110
v 0.207425 0.312281 1.173990
v 0.161423 0.415593 0.921605
v 0.913537 0.312283 0.765973
v 0.716034 0.415599 0.601777
v 1.192165 0.312284 -0.000495
v 0.935208 0.415601 0.000105
v 0.987384 0.098214 -0.832521
v 0.221246 0.098214 -1.272426
v -0.648416 0.098214 -1.116949
v -1.214677 0.098214 -0.438839
v -1.212577 0.098214 0.444609
v -0.643098 0.098214 1.120019
v 0.227292 0.098214 1.271360
v 0.991330 0.098214 0.827817
v 1.291514 0.098214 -0.003070
v -0.003650 0.415678 -0.000000
v 0.912901 -0.115856 -0.766731
v 0.716169 -0.219171 -0.601617
v 0.206451 -0.115854 -1.174162
v 0.161630 -0.219166 -0.921569
v -0.596582 -0.115851 -1.032175
v -0.468632 -0.219159 -0.810215
v -1.120467 -0.115849 -0.407260
v -0.879828 -0.219155 -0.319988
v -1.120129 -0.115849 0.408189
v -0.879900 -0.219155 0.319790
v -0.595725 -0.115851 1.032670
v -0.468814 -0.219159 0.810110
v 0.207424 -0.115854 1.173990
v 0.161423 -0.219166 0.921605
v 0.913537 -0.115856 0.765973
v 0.716034 -0.219171 0.601777
v 1.192165 -0.115857 -0.000495
v 0.935208 -0.219174 0.000105
v -0.985477 0.098214 0.830913
v -0.628561 0.213260 1.092794
v -0.220818 0.098214 1.269969
v 0.220928 0.213261 1.241159
v 0.647163 0.098214 1.114791
v 0.967042 0.213262 0.808773
v 1.212330 0.098214 0.437991
v 1.260667 0.213263 -0.002047
v 1.210234 0.098214 -0.443750
v 0.477553 -0.219540 -0.828471
v 0.192505 -0.182818 -1.093261
v 0.594444 -0.115855 -1.030738
v 0.850259 -0.182822 -0.713644
v 1.117926 -0.115857 -0.407447
v 1.110049 -0.182824 0.000068
v 0.898339 -0.219544 -0.327177
v -0.166860 -0.219533 -0.941879
v -0.555246 -0.182812 -0.961268
v -0.207186 -0.115852 -1.171699
v -0.733252 -0.219527 -0.614664
v -1.043190 -0.182809 -0.379640
v -0.911854 -0.115850 -0.764423
v -0.956904 -0.219525 -0.000108
v -1.043237 -0.182809 0.379512
v -1.189885 -0.115849 0.000494
v -0.733391 -0.219527 0.614499
v -0.555364 -0.182812 0.961200
v -0.911220 -0.115850 0.765179
v -0.167072 -0.219533 0.941842
v 0.192370 -0.182818 1.093284
v -0.206214 -0.115852 1.171870
v 0.477366 -0.219540 0.828578
v 0.850171 -0.182822 0.713749
v 0.595299 -0.115855 1.030244
v 0.898265 -0.219544 0.327380
v 1.118264 -0.115857 0.406519
v -0.001881 -0.227078 -0.000000
v 0.216897 -0.016834 -1.241870
v 0.964411 -0.016835 -0.811909
v -0.632106 -0.016833 -1.090747
v -1.185341 -0.016832 -0.429251
v -1.183941 -0.016832 0.433097
v -0.628561 -0.016833 1.092794
v 0.220928 -0.016834 1.241160
v 0.967042 -0.016835 0.808773
v 1.260667 -0.016835 -0.002047
v 0.850259 0.379250 -0.713644
v 0.594444 0.312282 -1.030738
v 0.192505 0.379245 -1.093261
v 0.477553 0.415967 -0.828471
v 0.898339 0.415972 -0.327177
v 1.110049 0.379251 0.000068
v 1.117926 0.312284 -0.407447
v -0.207186 0.312280 -1.171699
v -0.555246 0.379240 -0.961268
v -0.166860 0.415960 -0.941879
v -0.911854 0.312277 -0.764423
v -1.043190 0.379237 -0.379640
v -0.733252 0.415955 -0.614664
v -1.189885 0.312276 0.000494
v -1.043237 0.379237 0.379512
v -0.956904 0.415952 -0.000108
v -0.911220 0.312277 0.765179
v -0.555364 0.379240 0.961200
v -0.733391 0.415954 0.614499
v -0.206214 0.312280 1.171870
v 0.192370 0.379245 1.093284
v -0.167072 0.415960 0.941842
v 0.595299 0.312282 1.030244
v 0.850171 0.379250 0.713749
v 0.477366 0.415967 0.828578
v 1.118264 0.312284 0.406519
v 0.898265 0.415972 0.327380
v 0.450314 0.422769 -0.379615
v 0.100395 0.422765 -0.581487
v -0.297272 0.422760 -0.511206
v -0.556700 0.422757 -0.201899
v -0.556754 0.422757 0.201751
v -0.297408 0.422760 0.511127
v 0.100240 0.422765 0.581514
v 0.450212 0.422769 0.379735
v 0.588532 0.422771 0.000079
v 0.964411 0.213262 -0.811909
v 0.641856 0.098214 -1.117855
v 0.216897 0.213261 -1.241870
v -0.226853 0.098214 -1.268904
v -0.632106 0.213260 -1.090747
v -0.989416 0.098214 -0.826219
v -1.185341 0.213260 -0.429251
v -1.289020 0.098214 0.003064
v -1.183941 0.213260 0.433097
v 0.553772 0.379248 -0.959597
v 1.041073 0.379251 -0.378967
v -0.192648 0.379242 -1.091073
v -0.848852 0.379238 -0.712082
v -1.107986 0.379236 -0.000068
v -0.848940 0.379238 0.711977
v -0.192782 0.379242 1.091049
v 0.553654 0.379248 0.959665
v 1.041026 0.379251 0.379095
v 0.338011 0.424251 -0.588572
v -0.119797 0.424245 -0.669111
v -0.522138 0.424241 -0.436644
v -0.681006 0.424239 -0.000091
v -0.522255 0.424241 0.436504
v -0.119976 0.424245 0.669079
v 0.337854 0.424251 0.588662
v 0.636910 0.424254 0.232606
v 0.636972 0.424254 -0.232436
v 0.627347 0.213262 -1.090682
v -0.220501 0.213261 -1.238763
v -0.965176 0.213260 -0.807212
v -1.258233 0.213259 0.002043
v -0.962550 0.213260 0.810341
v -0.216478 0.213261 1.239472
v 0.630885 0.213262 1.088639
v 1.183050 0.213263 0.428421
v 1.181653 0.213263 -0.432260
v 0.553772 -0.182820 -0.959597
v 1.041073 -0.182823 -0.378967
v -0.192648 -0.182815 -1.091073
v -0.848852 -0.182810 -0.712082
v -1.107986 -0.182809 -0.000068
v -0.848940 -0.182810 0.711977
v -0.192782 -0.182815 1.091049
v 0.553654 -0.182820 0.959665
v 1.041026 -0.182823 0.379095
v 0.627347 -0.016834 -1.090682
v -0.220501 -0.016833 -1.238763
v -0.965176 -0.016832 -0.807212
v -1.258233 -0.016832 0.002043
v -0.962550 -0.016832 0.810341
v -0.216478 -0.016833 1.239472
v 0.630885 -0.016834 1.088639
v 1.183050 -0.016835 0.428421
v 1.181653 -0.016835 -0.432260
vt 0.005809 0.640528
vt 0.985945 0.626367
vt 0.068433 0.687113
vt 0.934761 0.683679
vt 0.116158 0.623905
vt 0.181010 0.688219
vt 0.224821 0.622470
vt 0.270013 0.687695
vt 0.334510 0.622474
vt 0.360780 0.687720
vt 0.444192 0.622474
vt 0.451504 0.687720
vt 0.553876 0.622470
vt 0.542238 0.687695
vt 0.663568 0.622465
vt 0.633023 0.687657
vt 0.773267 0.622460
vt 0.723856 0.687624
vt 0.881327 0.622434
vt 0.849228 0.683656
vt 0.006391 0.541543
vt 0.985864 0.536260
vt 0.985864 0.536260
vt 0.006391 0.541543
vt 0.110434 0.537802
vt 0.110434 0.537802
vt 0.221545 0.537802
vt 0.221545 0.537802
vt 0.332656 0.537802
vt 0.332656 0.537802
vt 0.443767 0.537802
vt 0.443767 0.537802
vt 0.554879 0.537802
vt 0.554879 0.537802
vt 0.665990 0.537802
vt 0.665990 0.537802
vt 0.777101 0.537802
vt 0.777101 0.537802
vt 0.888212 0.537802
vt 0.888212 0.537802
vt 0.471540 0.790340
vt 0.613034 0.790948
vt 0.005809 0.640528
vt 0.985945 0.626367
vt 0.068433 0.687113
vt 0.934761 0.683679
vt 0.116158 0.623905
vt 0.181010 0.688219
vt 0.224821 0.622471
vt 0.270013 0.687695
vt 0.334510 0.622474
vt 0.360780 0.687720
vt 0.444192 0.622474
vt 0.451504 0.687720
vt 0.553876 0.622471
vt 0.542238 0.687695
vt 0.663568 0.622465
vt 0.633023 0.687657
vt 0.773267 0.622460
vt 0.723856 0.687624
vt 0.881327 0.622434
vt 0.849228 0.683656
vt 0.083772 0.659432
vt 0.914413 0.655017
vt 0.183157 0.655056
vt 0.288601 0.655077
vt 0.394007 0.655086
vt 0.499400 0.655077
vt 0.604816 0.655056
vt 0.710268 0.655032
vt 0.815738 0.655016
vt 0.230292 0.720391
vt 0.291059 0.719277
vt 0.357578 0.719306
vt 0.424044 0.719318
vt 0.490494 0.719306
vt 0.556975 0.719277
vt 0.623503 0.719244
vt 0.690055 0.719223
vt 0.799008 0.719428
vt 0.058143 0.586560
vt 0.165743 0.582084
vt 0.276854 0.582084
vt 0.387965 0.582084
vt 0.499076 0.582084
vt 0.610187 0.582084
vt 0.721298 0.582084
vt 0.832409 0.582085
vt 0.936935 0.581699
vt 0.083772 0.659432
vt 0.914413 0.655017
vt 0.183157 0.655056
vt 0.288601 0.655077
vt 0.394007 0.655086
vt 0.499400 0.655077
vt 0.604816 0.655056
vt 0.710268 0.655032
vt 0.815738 0.655016
vt 0.262076 0.729183
vt 0.316893 0.723726
vt 0.379242 0.723749
vt 0.441548 0.723755
vt 0.503850 0.723740
vt 0.566186 0.723711
vt 0.628563 0.723682
vt 0.675220 0.728110
vt 0.768012 0.731348
vt 0.058143 0.586560
vt 0.165743 0.582084
vt 0.276854 0.582084
vt 0.387965 0.582084
vt 0.499076 0.582084
vt 0.610187 0.582084
vt 0.721298 0.582084
vt 0.832409 0.582085
vt 0.936935 0.581699
vt 0.037121 0.663820
vt 0.960353 0.655023
vt 0.064416 0.628222
vt 0.131943 0.656143
vt 0.133350 0.687664
vt 0.874352 0.685445
vt 0.866774 0.655014
vt 0.931252 0.622363
vt 0.169972 0.622468
vt 0.235885 0.655068
vt 0.218963 0.685456
vt 0.279667 0.622473
vt 0.341308 0.655083
vt 0.311843 0.685490
vt 0.389352 0.622475
vt 0.446702 0.655084
vt 0.404660 0.685504
vt 0.499033 0.622473
vt 0.552103 0.655068
vt 0.497459 0.685490
vt 0.608721 0.622468
vt 0.657537 0.655043
vt 0.590294 0.685456
vt 0.718417 0.622462
vt 0.763002 0.655022
vt 0.683185 0.685417
vt 0.828118 0.622459
vt 0.776105 0.685392
vt 0.269987 0.738726
vt 0.773897 0.737314
vt 0.285949 0.728432
vt 0.342727 0.728174
vt 0.400906 0.728193
vt 0.459052 0.728193
vt 0.517205 0.728174
vt 0.575397 0.728145
vt 0.633624 0.728120
vt 0.660384 0.736998
vt 0.731131 0.737302
vt 0.006100 0.591036
vt 0.985904 0.581314
vt 0.058413 0.539673
vt 0.058413 0.539673
vt 0.111065 0.583203
vt 0.165990 0.537802
vt 0.165990 0.537802
vt 0.221298 0.582084
vt 0.277101 0.537802
vt 0.277101 0.537802
vt 0.332409 0.582084
vt 0.388212 0.537802
vt 0.388212 0.537802
vt 0.443520 0.582084
vt 0.499323 0.537802
vt 0.499323 0.537802
vt 0.554631 0.582084
vt 0.610434 0.537802
vt 0.610434 0.537802
vt 0.665743 0.582084
vt 0.721545 0.537802
vt 0.721545 0.537802
vt 0.776854 0.582085
vt 0.832656 0.537802
vt 0.832656 0.537802
vt 0.886318 0.581988
vt 0.937038 0.537031
vt 0.937038 0.537031
vt 0.133350 0.687664
vt 0.131943 0.656143
vt 0.064416 0.628222
vt 0.037121 0.663820
vt 0.960353 0.655023
vt 0.931252 0.622363
vt 0.866774 0.655014
vt 0.874352 0.685445
vt 0.218963 0.685456
vt 0.235885 0.655068
vt 0.169972 0.622468
vt 0.311843 0.685490
vt 0.341308 0.655083
vt 0.279667 0.622473
vt 0.404660 0.685504
vt 0.446702 0.655084
vt 0.389352 0.622475
vt 0.497459 0.685490
vt 0.552103 0.655068
vt 0.499033 0.622473
vt 0.590294 0.685456
vt 0.657537 0.655043
vt 0.608721 0.622468
vt 0.683185 0.685417
vt 0.763002 0.655022
vt 0.718417 0.622462
vt 0.776105 0.685392
vt 0.828118 0.622459
vt 0.111065 0.583203
vt 0.006100 0.591036
vt 0.985904 0.581314
vt 0.221298 0.582084
vt 0.332409 0.582084
vt 0.443520 0.582084
vt 0.554631 0.582084
vt 0.665743 0.582084
vt 0.776854 0.582085
vt 0.886318 0.581988
vn 0.086134 0.993654 -0.072335
vn 0.323503 0.906471 -0.271396
vn 0.210262 0.907299 -0.364142
vn 0.058805 0.993049 -0.101963
vn 0.575057 0.660601 -0.482614
vn 0.375390 0.660356 -0.650394
vn 0.130307 0.660538 -0.739398
vn 0.073389 0.906303 -0.416208
vn 0.019497 0.993628 -0.111012
vn 0.394901 0.907423 -0.143653
vn 0.705594 0.660404 -0.256913
vn 0.110449 0.993068 -0.040214
vn 0.112387 0.993665 0.000013
vn 0.422126 0.906537 0.000122
vn 0.750715 0.660626 -0.000057
vn -0.073080 0.907107 -0.414508
vn -0.020547 0.993019 -0.116155
vn -0.130513 0.660283 -0.739590
vn -0.375485 0.660466 -0.650227
vn -0.211507 0.906111 -0.366371
vn -0.056545 0.993598 -0.097807
vn -0.322681 0.906937 -0.270819
vn -0.090556 0.992992 -0.075937
vn -0.575418 0.660217 -0.482708
vn -0.705634 0.660418 -0.256765
vn -0.397754 0.905985 -0.144855
vn -0.106332 0.993578 -0.038682
vn -0.421412 0.906869 -0.000110
vn -0.118269 0.992982 -0.000015
vn -0.751098 0.660191 0.000087
vn -0.705595 0.660418 0.256873
vn -0.397838 0.905985 0.144626
vn -0.106341 0.993578 0.038658
vn -0.322822 0.906937 0.270651
vn -0.090574 0.992992 0.075914
vn -0.575307 0.660218 0.482840
vn -0.375386 0.660466 0.650284
vn -0.211719 0.906111 0.366249
vn -0.056568 0.993598 0.097794
vn -0.073295 0.907107 0.414470
vn -0.020575 0.993019 0.116150
vn -0.130343 0.660283 0.739619
vn 0.130420 0.660539 0.739378
vn 0.073148 0.906303 0.416250
vn 0.019471 0.993628 0.111016
vn 0.210072 0.907299 0.364251
vn 0.058780 0.993049 0.101978
vn 0.375539 0.660357 0.650307
vn 0.575130 0.660601 0.482526
vn 0.323346 0.906471 0.271583
vn 0.086118 0.993654 0.072354
vn 0.394826 0.907424 0.143858
vn 0.110439 0.993068 0.040241
vn 0.705653 0.660404 0.256750
vn 0.000003 1.000000 -0.000000
vn 0.000257 1.000000 -0.000226
vn 0.003747 0.999972 -0.006534
vn 0.000049 1.000000 -0.000353
vn -0.001335 0.999972 -0.007428
vn -0.000196 1.000000 -0.000317
vn -0.005801 0.999972 -0.004847
vn -0.000362 1.000000 -0.000127
vn -0.007565 0.999971 -0.000001
vn -0.000362 1.000000 0.000127
vn -0.005802 0.999972 0.004845
vn -0.000196 1.000000 0.000317
vn -0.001337 0.999972 0.007427
vn 0.000049 1.000000 0.000353
vn 0.003745 0.999972 0.006535
vn 0.000257 1.000000 0.000226
vn 0.007065 0.999972 0.002582
vn 0.000336 1.000000 -0.000000
vn 0.007066 0.999972 -0.002580
vn 0.454701 0.410084 -0.790619
vn 0.156857 0.410254 -0.898381
vn 0.697614 0.410277 -0.587373
vn 0.764150 -0.000000 -0.645039
vn 0.497502 -0.000000 -0.867463
vn 0.170750 -0.000000 -0.985314
vn -0.159878 0.410058 -0.897938
vn -0.457317 0.410229 -0.789034
vn -0.176485 -0.000000 -0.984303
vn -0.502545 -0.000000 -0.864551
vn -0.699669 0.410035 -0.585094
vn -0.857517 0.410212 -0.310468
vn -0.767894 -0.000000 -0.640577
vn -0.940695 -0.000000 -0.339254
vn -0.912073 0.410026 0.001544
vn -0.856456 0.410212 0.313384
vn -0.999996 0.000000 0.002883
vn -0.938682 0.000000 0.344784
vn -0.697684 0.410035 0.587459
vn -0.454630 0.410229 0.790585
vn -0.764188 -0.000000 0.644994
vn -0.497449 0.000000 0.867493
vn -0.156837 0.410059 0.898473
vn 0.159912 0.410255 0.897841
vn -0.170808 0.000000 0.985304
vn 0.176546 0.000000 0.984292
vn 0.457375 0.410085 0.789074
vn 0.699608 0.410277 0.584997
vn 0.502495 0.000000 0.864580
vn 0.767933 -0.000000 0.640531
vn 0.857566 0.410101 0.310479
vn 0.911955 0.410287 -0.001551
vn 0.940675 0.000000 0.339310
vn 0.999996 -0.000000 -0.002942
vn 0.856510 0.410102 -0.313380
vn 0.938703 -0.000000 -0.344727
vn 0.056272 -0.997297 -0.047256
vn 0.039836 -0.996814 -0.069099
vn 0.210262 -0.907299 -0.364141
vn 0.323503 -0.906471 -0.271396
vn 0.012726 -0.997290 -0.072462
vn 0.073389 -0.906303 -0.416208
vn 0.130307 -0.660538 -0.739398
vn 0.375389 -0.660356 -0.650394
vn 0.575057 -0.660601 -0.482614
vn 0.705594 -0.660404 -0.256913
vn 0.394901 -0.907423 -0.143653
vn 0.750715 -0.660626 -0.000057
vn 0.422126 -0.906537 0.000122
vn 0.073447 -0.997299 0.000008
vn 0.074887 -0.996819 -0.027271
vn -0.013924 -0.996807 -0.078631
vn -0.073079 -0.907107 -0.414508
vn -0.036874 -0.997283 -0.063781
vn -0.211507 -0.906111 -0.366371
vn -0.375485 -0.660466 -0.650227
vn -0.130513 -0.660283 -0.739590
vn -0.061258 -0.996800 -0.051356
vn -0.322681 -0.906937 -0.270819
vn -0.069296 -0.997278 -0.025209
vn -0.397754 -0.905985 -0.144855
vn -0.705634 -0.660418 -0.256765
vn -0.575418 -0.660217 -0.482707
vn -0.079971 -0.996797 -0.000010
vn -0.421412 -0.906869 -0.000110
vn -0.069302 -0.997278 0.025193
vn -0.397838 -0.905985 0.144626
vn -0.705595 -0.660418 0.256873
vn -0.751098 -0.660191 0.000086
vn -0.061271 -0.996800 0.051341
vn -0.322822 -0.906937 0.270651
vn -0.036888 -0.997283 0.063773
vn -0.211719 -0.906111 0.366249
vn -0.375386 -0.660466 0.650284
vn -0.575307 -0.660218 0.482840
vn -0.013944 -0.996807 0.078627
vn -0.073295 -0.907107 0.414470
vn 0.012710 -0.997290 0.072465
vn 0.073148 -0.906303 0.416250
vn 0.130420 -0.660539 0.739377
vn -0.130343 -0.660284 0.739619
vn 0.039819 -0.996814 0.069109
vn 0.210072 -0.907299 0.364251
vn 0.056261 -0.997297 0.047269
vn 0.323346 -0.906471 0.271583
vn 0.575130 -0.660601 0.482526
vn 0.375539 -0.660357 0.650307
vn 0.074880 -0.996819 0.027290
vn 0.394826 -0.907423 0.143858
vn 0.705653 -0.660404 0.256750
vn -0.000015 -1.000000 0.000000
vn 0.156856 -0.410254 -0.898381
vn 0.454701 -0.410084 -0.790619
vn 0.697614 -0.410277 -0.587373
vn -0.457317 -0.410229 -0.789033
vn -0.159878 -0.410058 -0.897938
vn -0.857517 -0.410212 -0.310468
vn -0.699669 -0.410035 -0.585094
vn -0.856456 -0.410212 0.313384
vn -0.912073 -0.410026 0.001544
vn -0.454630 -0.410229 0.790585
vn -0.697684 -0.410035 0.587459
vn 0.159912 -0.410255 0.897841
vn -0.156837 -0.410059 0.898473
vn 0.699608 -0.410277 0.584997
vn 0.457375 -0.410085 0.789075
vn 0.911955 -0.410287 -0.001551
vn 0.857566 -0.410102 0.310479
vn 0.856510 -0.410102 -0.313380
s 1
g pTorus1
usemtl initialShadingGroup
f 2/3/1 93/117/2 138/63/3 96/121/4
f 93/117/2 1/1/5 94/119/6 138/63/3
f 138/63/3 94/119/6 3/5/7 95/120/8
f 96/121/4 138/63/3 95/120/8 4/6/9
f 1/2/5 93/118/2 139/64/10 99/124/11
f 93/118/2 2/4/1 97/122/12 139/64/10
f 139/64/10 97/122/12 18/20/13 98/123/14
f 99/124/11 139/64/10 98/123/14 17/19/15
f 4/6/9 95/120/8 140/65/16 102/127/17
f 95/120/8 3/5/7 100/125/18 140/65/16
f 140/65/16 100/125/18 5/7/19 101/126/20
f 102/127/17 140/65/16 101/126/20 6/8/21
f 6/8/21 101/126/20 141/66/22 105/130/23
f 101/126/20 5/7/19 103/128/24 141/66/22
f 141/66/22 103/128/24 7/9/25 104/129/26
f 105/130/23 141/66/22 104/129/26 8/10/27
f 8/10/27 104/129/26 142/67/28 108/133/29
f 104/129/26 7/9/25 106/131/30 142/67/28
f 142/67/28 106/131/30 9/11/31 107/132/32
f 108/133/29 142/67/28 107/132/32 10/12/33
f 10/12/33 107/132/32 143/68/34 111/136/35
f 107/132/32 9/11/31 109/134/36 143/68/34
f 143/68/34 109/134/36 11/13/37 110/135/38
f 111/136/35 143/68/34 110/135/38 12/14/39
f 12/14/39 110/135/38 144/69/40 114/139/41
f 110/135/38 11/13/37 112/137/42 144/69/40
f 144/69/40 112/137/42 13/15/43 113/138/44
f 114/139/41 144/69/40 113/138/44 14/16/45
f 14/16/45 113/138/44 145/70/46 117/142/47
f 113/138/44 13/15/43 115/140/48 145/70/46
f 145/70/46 115/140/48 15/17/49 116/141/50
f 117/142/47 145/70/46 116/141/50 16/18/51
f 16/18/51 116/141/50 146/71/52 119/144/53
f 116/141/50 15/17/49 118/143/54 146/71/52
f 146/71/52 118/143/54 17/19/15 98/123/14
f 119/144/53 146/71/52 98/123/14 18/20/13
f 28/41/55 120/145/56 147/72/57 121/147/58
f 2/3/1 96/121/4 147/72/57 120/145/56
f 4/6/9 121/147/58 147/72/57 96/121/4
f 28/41/55 121/147/58 148/73/59 122/148/60
f 4/6/9 102/127/17 148/73/59 121/147/58
f 6/8/21 122/148/60 148/73/59 102/127/17
f 28/41/55 122/148/60 149/74/61 123/149/62
f 6/8/21 105/130/23 149/74/61 122/148/60
f 8/10/27 123/149/62 149/74/61 105/130/23
f 28/41/55 123/149/62 150/75/63 124/150/64
f 8/10/27 108/133/29 150/75/63 123/149/62
f 10/12/33 124/150/64 150/75/63 108/133/29
f 28/41/55 124/150/64 151/76/65 125/151/66
f 10/12/33 111/136/35 151/76/65 124/150/64
f 12/14/39 125/151/66 151/76/65 111/136/35
f 28/41/55 125/151/66 152/77/67 126/152/68
f 12/14/39 114/139/41 152/77/67 125/151/66
f 14/16/45 126/152/68 152/77/67 114/139/41
f 28/41/55 126/152/68 153/78/69 127/153/70
f 14/16/45 117/142/47 153/78/69 126/152/68
f 16/18/51 127/153/70 153/78/69 117/142/47
f 28/41/55 127/153/70 154/79/71 128/154/72
f 16/18/51 119/144/53 154/79/71 127/153/70
f 18/20/13 128/154/72 154/79/71 119/144/53
f 28/42/55 128/155/72 155/80/73 120/146/56
f 18/20/13 97/122/12 155/80/73 128/155/72
f 2/4/1 120/146/56 155/80/73 97/122/12
f 3/5/7 94/119/6 156/81/74 131/160/75
f 94/119/6 1/1/5 129/156/76 156/81/74
f 156/81/74 129/156/76 19/21/77 130/158/78
f 131/160/75 156/81/74 130/158/78 20/25/79
f 5/7/19 100/125/18 157/82/80 133/163/81
f 100/125/18 3/5/7 131/160/75 157/82/80
f 157/82/80 131/160/75 20/25/79 132/161/82
f 133/163/81 157/82/80 132/161/82 21/27/83
f 7/9/25 103/128/24 158/83/84 135/166/85
f 103/128/24 5/7/19 133/163/81 158/83/84
f 158/83/84 133/163/81 21/27/83 134/164/86
f 135/166/85 158/83/84 134/164/86 22/29/87
f 9/11/31 106/131/30 159/84/88 137/169/89
f 106/131/30 7/9/25 135/166/85 159/84/88
f 159/84/88 135/166/85 22/29/87 136/167/90
f 137/169/89 159/84/88 136/167/90 23/31/91
f 11/13/37 109/134/36 160/85/92 48/172/93
f 109/134/36 9/11/31 137/169/89 160/85/92
f 160/85/92 137/169/89 23/31/91 47/170/94
f 48/172/93 160/85/92 47/170/94 24/33/95
f 13/15/43 112/137/42 161/86/96 50/175/97
f 112/137/42 11/13/37 48/172/93 161/86/96
f 161/86/96 48/172/93 24/33/95 49/173/98
f 50/175/97 161/86/96 49/173/98 25/35/99
f 15/17/49 115/140/48 162/87/100 52/178/101
f 115/140/48 13/15/43 50/175/97 162/87/100
f 162/87/100 50/175/97 25/35/99 51/176/102
f 52/178/101 162/87/100 51/176/102 26/37/103
f 17/19/15 118/143/54 163/88/104 54/181/105
f 118/143/54 15/17/49 52/178/101 163/88/104
f 163/88/104 52/178/101 26/37/103 53/179/106
f 54/181/105 163/88/104 53/179/106 27/39/107
f 1/2/5 99/124/11 164/89/108 129/157/76
f 99/124/11 17/19/15 54/181/105 164/89/108
f 164/89/108 54/181/105 27/39/107 55/182/109
f 129/157/76 164/89/108 55/182/109 19/22/77
f 30/45/110 56/184/111 165/90/112 59/187/113
f 56/184/111 32/48/114 57/185/115 165/90/112
f 165/90/112 57/185/115 31/47/116 58/186/117
f 59/187/113 165/90/112 58/186/117 29/43/118
f 29/44/118 60/189/119 166/91/120 59/188/113
f 60/189/119 45/61/121 61/190/122 166/91/120
f 166/91/120 61/190/122 46/62/123 62/191/124
f 59/188/113 166/91/120 62/191/124 30/46/110
f 32/48/114 63/192/125 167/92/126 57/185/115
f 63/192/125 34/50/127 64/193/128 167/92/126
f 167/92/126 64/193/128 33/49/129 65/194/130
f 57/185/115 167/92/126 65/194/130 31/47/116
f 34/50/127 66/195/131 168/93/132 64/193/128
f 66/195/131 36/52/133 67/196/134 168/93/132
f 168/93/132 67/196/134 35/51/135 68/197/136
f 64/193/128 168/93/132 68/197/136 33/49/129
f 36/52/133 69/198/137 169/94/138 67/196/134
f 69/198/137 38/54/139 70/199/140 169/94/138
f 169/94/138 70/199/140 37/53/141 71/200/142
f 67/196/134 169/94/138 71/200/142 35/51/135
f 38/54/139 72/201/143 170/95/144 70/199/140
f 72/201/143 40/56/145 73/202/146 170/95/144
f 170/95/144 73/202/146 39/55/147 74/203/148
f 70/199/140 170/95/144 74/203/148 37/53/141
f 40/56/145 75/204/149 171/96/150 73/202/146
f 75/204/149 42/58/151 76/205/152 171/96/150
f 171/96/150 76/205/152 41/57/153 77/206/154
f 73/202/146 171/96/150 77/206/154 39/55/147
f 42/58/151 78/207/155 172/97/156 76/205/152
f 78/207/155 44/60/157 79/208/158 172/97/156
f 172/97/156 79/208/158 43/59/159 80/209/160
f 76/205/152 172/97/156 80/209/160 41/57/153
f 44/60/157 81/210/161 173/98/162 79/208/158
f 81/210/161 46/62/123 61/190/122 173/98/162
f 173/98/162 61/190/122 45/61/121 82/211/163
f 79/208/158 173/98/162 82/211/163 43/59/159
f 32/48/114 56/184/111 83/99/164
f 30/45/110 83/99/164 56/184/111
f 34/50/127 63/192/125 83/100/164
f 32/48/114 83/99/164 63/192/125
f 36/52/133 66/195/131 83/101/164
f 34/50/127 83/100/164 66/195/131
f 38/54/139 69/198/137 83/102/164
f 36/52/133 83/101/164 69/198/137
f 40/56/145 72/201/143 83/103/164
f 38/54/139 83/102/164 72/201/143
f 42/58/151 75/204/149 83/104/164
f 40/56/145 83/103/164 75/204/149
f 44/60/157 78/207/155 83/105/164
f 42/58/151 83/104/164 78/207/155
f 46/62/123 81/210/161 83/106/164
f 44/60/157 83/105/164 81/210/161
f 30/46/110 62/191/124 83/107/164
f 46/62/123 83/107/164 62/191/124
f 31/47/116 84/212/165 174/108/166 58/186/117
f 84/212/165 20/26/79 130/159/78 174/108/166
f 174/108/166 130/159/78 19/24/77 85/213/167
f 58/186/117 174/108/166 85/213/167 29/43/118
f 33/49/129 86/215/168 175/109/169 65/194/130
f 86/215/168 21/28/83 132/162/82 175/109/169
f 175/109/169 132/162/82 20/26/79 84/212/165
f 65/194/130 175/109/169 84/212/165 31/47/116
f 35/51/135 87/216/170 176/110/171 68/197/136
f 87/216/170 22/30/87 134/165/86 176/110/171
f 176/110/171 134/165/86 21/28/83 86/215/168
f 68/197/136 176/110/171 86/215/168 33/49/129
f 37/53/141 88/217/172 177/111/173 71/200/142
f 88/217/172 23/32/91 136/168/90 177/111/173
f 177/111/173 136/168/90 22/30/87 87/216/170
f 71/200/142 177/111/173 87/216/170 35/51/135
f 39/55/147 89/218/174 178/112/175 74/203/148
f 89/218/174 24/34/95 47/171/94 178/112/175
f 178/112/175 47/171/94 23/32/91 88/217/172
f 74/203/148 178/112/175 88/217/172 37/53/141
f 41/57/153 90/219/176 179/113/177 77/206/154
f 90/219/176 25/36/99 49/174/98 179/113/177
f 179/113/177 49/174/98 24/34/95 89/218/174
f 77/206/154 179/113/177 89/218/174 39/55/147
f 43/59/159 91/220/178 180/114/179 80/209/160
f 91/220/178 26/38/103 51/177/102 180/114/179
f 180/114/179 51/177/102 25/36/99 90/219/176
f 80/209/160 180/114/179 90/219/176 41/57/153
f 45/61/121 92/221/180 181/115/181 82/211/163
f 92/221/180 27/40/107 53/180/106 181/115/181
f 181/115/181 53/180/106 26/38/103 91/220/178
f 82/211/163 181/115/181 91/220/178 43/59/159
f 29/44/118 85/214/167 182/116/182 60/189/119
f 85/214/167 19/23/77 55/183/109 182/116/182
f 182/116/182 55/183/109 27/40/107 92/221/180
f 60/189/119 182/116/182 92/221/180 45/61/121
g default
v 0.804735 0.375475 -0.678597
v 0.180269 0.375474 -1.037109
v -0.528547 0.375474 -0.910347
v -0.990050 0.375475 -0.357622
v -0.988298 0.375474 0.362438
v -0.524110 0.375473 0.912909
v 0.185315 0.375473 1.036220
v 0.808029 0.375474 0.674672
v 1.052656 0.375475 -0.002562
v 0.742689 0.123015 -0.623772
v 0.582638 -0.001423 -0.489444
v 0.167957 0.123018 -0.955238
v 0.131494 -0.001416 -0.749740
v -0.485348 0.123021 -0.839724
v -0.381255 -0.001409 -0.659149
v -0.911554 0.123023 -0.331325
v -0.715783 -0.001403 -0.260325
v -0.911279 0.123023 0.332081
v -0.715841 -0.001403 0.260165
v -0.484651 0.123021 0.840127
v -0.381403 -0.001409 0.659063
v 0.168750 0.123018 0.955098
v 0.131325 -0.001416 0.749770
v 0.743206 0.123015 0.623156
v 0.582528 -0.001423 0.489575
v 0.969884 0.123014 -0.000402
v 0.760837 -0.001426 0.000085
v -0.002970 -0.001518 -0.000000
v 0.790397 0.497913 -0.665733
v 0.639759 0.745693 -0.536183
v 0.145547 0.745687 -0.821365
v 0.177555 0.497909 -1.018040
v 0.551279 0.801600 -0.460771
v 0.126557 0.801591 -0.705801
v 0.834971 0.745688 0.000075
v 0.719036 0.801601 0.000087
v 1.033403 0.497915 -0.001923
v -0.416205 0.745684 -0.722146
v -0.518368 0.497909 -0.893994
v -0.356124 0.801581 -0.620494
v -0.782742 0.745670 -0.285206
v -0.971741 0.497911 -0.351638
v -0.671012 0.801572 -0.245061
v -0.782796 0.745665 0.285065
v -0.970426 0.497909 0.355253
v -0.671058 0.801570 0.244873
v -0.416336 0.745679 0.722070
v -0.515037 0.497906 0.895919
v -0.356263 0.801579 0.620358
v 0.145396 0.745688 0.821382
v 0.181343 0.497906 1.017373
v 0.126368 0.801590 0.705778
v 0.639660 0.745691 0.536296
v 0.792871 0.497910 0.662787
v 0.551136 0.801598 0.460882
v 0.434809 0.855611 -0.359032
v 0.565524 0.855613 0.000067
v 0.103868 0.855604 -0.549952
v -0.272225 0.855595 -0.483478
v 0.434691 0.855610 0.359112
v -0.517571 0.855588 -0.190949
v -0.517606 0.855588 0.190788
v -0.272336 0.855594 0.483355
v 0.103714 0.855603 0.549922
v 0.248686 0.881642 -0.196325
v 0.320160 0.881643 0.000029
v 0.067728 0.881638 -0.300721
v -0.137919 0.881633 -0.264373
v 0.248621 0.881641 0.196354
v -0.272075 0.881629 -0.104419
v -0.272094 0.881629 0.104315
v -0.137980 0.881632 0.264290
v 0.067644 0.881637 0.300688
v -0.907592 0.651307 -0.330052
v -0.636759 0.745677 -0.534941
v -0.545606 0.801576 -0.459632
v -1.031409 0.497910 0.001920
v -0.907427 0.651303 0.330514
v -0.831423 0.745665 -0.000075
v -0.712829 0.801570 -0.000097
v -0.788872 0.497907 0.664449
v -0.482710 0.651298 0.836455
v -0.636858 0.745671 0.534826
v -0.545700 0.801574 0.459463
v -0.177212 0.497905 1.016075
v 0.167876 0.651300 0.951039
v -0.143959 0.745684 0.819658
v -0.122254 0.801584 0.704248
v 0.517367 0.497908 0.892268
v 0.416849 0.745691 0.721032
v 0.359641 0.801595 0.619594
v 0.530825 0.855613 -0.190646
v 0.285625 0.855608 -0.482747
v -0.089865 0.855599 -0.548806
v 0.530760 0.855612 0.190765
v -0.419862 0.855591 -0.358137
v -0.550152 0.855587 -0.000083
v -0.419935 0.855590 0.357989
v -0.090005 0.855598 0.548724
v 0.285478 0.855607 0.482774
v 0.346966 0.871899 -0.282068
v 0.307364 0.881480 -0.106546
v 0.449658 0.871901 0.000049
v 0.086970 0.871893 -0.432060
v 0.170340 0.881477 -0.269780
v -0.208498 0.871886 -0.379836
v -0.039494 0.881472 -0.306695
v 0.307328 0.881480 0.106597
v 0.346873 0.871898 0.282124
v -0.401248 0.871881 -0.150018
v -0.223905 0.881467 -0.200144
v -0.401276 0.871881 0.149884
v -0.296715 0.881465 -0.000054
v -0.208585 0.871885 0.379732
v -0.223946 0.881467 0.200046
v 0.086849 0.871892 0.432028
v -0.039572 0.881471 0.306635
v 0.170258 0.881476 0.269780
v 0.017452 0.886734 -0.000018
v 0.388512 -0.001867 -0.674001
v 0.156612 0.042363 -0.889421
v 0.483609 0.123017 -0.838555
v 0.691727 0.042358 -0.580584
v 0.909487 0.123014 -0.331478
v 0.903079 0.042355 0.000055
v 0.730842 -0.001872 -0.266175
v -0.135749 -0.001859 -0.766264
v -0.451720 0.042369 -0.782038
v -0.168556 0.123020 -0.953233
v -0.596536 -0.001852 -0.500059
v -0.848686 0.042373 -0.308855
v -0.741837 0.123023 -0.621895
v -0.778488 -0.001849 -0.000088
v -0.848724 0.042373 0.308751
v -0.968029 0.123024 0.000402
v -0.596649 -0.001852 0.499924
v -0.451816 0.042369 0.781982
v -0.741321 0.123023 0.622510
v -0.135921 -0.001859 0.766234
v 0.156503 0.042363 0.889440
v -0.167765 0.123020 0.953373
v 0.388360 -0.001867 0.674088
v 0.691655 0.042358 0.580669
v 0.484305 0.123017 0.838153
v 0.730782 -0.001872 0.266339
v 0.909762 0.123014 0.330723
v 0.081676 -0.010054 -0.473068
v 0.366352 -0.010059 -0.308835
v -0.241845 -0.010049 -0.415891
v -0.452903 -0.010045 -0.164254
v -0.452946 -0.010045 0.164134
v -0.241956 -0.010049 0.415826
v 0.081550 -0.010054 0.473090
v 0.366270 -0.010059 0.308933
v 0.478799 -0.010061 0.000064
v 0.176456 0.242283 -1.010321
v 0.523097 0.375474 -0.911145
v 0.784595 0.242282 -0.660527
v -0.514249 0.242284 -0.887376
v -0.184957 0.375474 -1.034219
v -0.964332 0.242285 -0.349216
v -0.806468 0.375475 -0.673369
v -0.963193 0.242285 0.352345
v -1.050624 0.375475 0.002557
v -0.511365 0.242284 0.889040
v -0.803181 0.375474 0.677287
v 0.179736 0.242283 1.009743
v -0.179921 0.375473 1.035107
v 0.786736 0.242282 0.657976
v 0.527526 0.375473 0.908588
v 1.025613 0.242281 -0.001665
v 0.988137 0.375475 0.356931
v 0.986388 0.375475 -0.361737
v 0.739607 0.651313 -0.620980
v 0.783142 0.745691 -0.284722
v 0.965726 0.651316 -0.000245
v 0.968549 0.497915 -0.354566
v 0.514042 0.497911 -0.894186
v 0.167393 0.651305 -0.951120
v 0.416982 0.745690 -0.720964
v -0.180993 0.497909 -1.015407
v -0.483132 0.651304 -0.836206
v -0.143809 0.745686 -0.819690
v 0.674502 0.801601 -0.244669
v 0.359820 0.801596 -0.619547
v -0.122081 0.801586 -0.704333
v 0.674424 0.801600 0.244825
v 0.783089 0.745689 0.284863
v 0.739924 0.651308 0.620607
v 0.969863 0.497913 0.350959
v -0.791339 0.497910 -0.661507
v 0.450520 0.042360 -0.780678
v 0.846963 0.042356 -0.308308
v -0.156728 0.042366 -0.887640
v -0.690582 0.042372 -0.579313
v -0.901400 0.042374 -0.000055
v -0.690653 0.042372 0.579228
v -0.156837 0.042366 0.887621
v 0.450424 0.042360 0.780733
v 0.846925 0.042356 0.308412
v 0.274989 -0.011844 -0.478832
v -0.097461 -0.011838 -0.544354
v -0.424785 -0.011832 -0.355231
v -0.554031 -0.011830 -0.000074
v -0.424879 -0.011832 0.355117
v -0.097606 -0.011838 0.544328
v 0.274861 -0.011844 0.478905
v 0.518157 -0.011848 0.189236
v 0.518207 -0.011848 -0.189098
v 0.510377 0.242282 -0.887323
v -0.179388 0.242283 -1.007793
v -0.785217 0.242285 -0.656706
v -1.023633 0.242285 0.001662
v -0.783080 0.242285 0.659252
v -0.176115 0.242283 1.008370
v 0.513255 0.242282 0.885661
v 0.962468 0.242281 0.348541
v 0.961331 0.242281 -0.351664
v 0.905641 0.651316 -0.329911
v 0.481673 0.651309 -0.834885
v -0.167679 0.651304 -0.949178
v 0.905810 0.651313 0.329453
v -0.738556 0.651306 -0.619350
v -0.963879 0.651306 0.000245
v -0.738245 0.651300 0.619727
v -0.167198 0.651298 0.949267
v 0.482099 0.651303 0.834644
v 0.422398 0.871900 -0.149780
v 0.229763 0.871896 -0.379262
v -0.065232 0.871890 -0.431159
v 0.422347 0.871900 0.149866
v -0.324485 0.871883 -0.281365
v -0.426845 0.871880 -0.000069
v -0.324543 0.871882 0.281241
v -0.065341 0.871889 0.431088
v 0.229647 0.871896 0.379276
vt 0.006391 0.541543
vt 0.985864 0.536260
vt 0.111201 0.558993
vt 0.221431 0.558225
vt 0.332542 0.558225
vt 0.443653 0.558224
vt 0.554765 0.558224
vt 0.665876 0.558224
vt 0.776987 0.558225
vt 0.886432 0.558077
vt 0.005809 0.640528
vt 0.985945 0.626367
vt 0.068433 0.687113
vt 0.934761 0.683679
vt 0.116158 0.623905
vt 0.181010 0.688219
vt 0.224821 0.622471
vt 0.270013 0.687695
vt 0.334510 0.622474
vt 0.360780 0.687720
vt 0.444192 0.622474
vt 0.451504 0.687720
vt 0.553876 0.622471
vt 0.542238 0.687695
vt 0.663568 0.622465
vt 0.633023 0.687657
vt 0.773267 0.622460
vt 0.723856 0.687624
vt 0.881327 0.622434
vt 0.849228 0.683656
vt 0.471540 0.790340
vt 0.613034 0.790948
vt 0.987051 0.574839
vt 0.006213 0.582589
vt -0.006294 0.622921
vt 0.947160 0.668602
vt 0.052614 0.675247
vt 0.142569 0.667877
vt 0.109699 0.580441
vt 0.915996 0.689903
vt 0.091210 0.693147
vt -0.020138 0.005272
vt 1.020324 0.012236
vt 0.169311 0.689495
vt -0.019502 0.005185
vt 1.021129 0.010383
vt 0.857557 0.667216
vt 0.834970 0.689288
vt -0.019537 0.005290
vt 1.020201 0.012273
vt 0.886752 0.577232
vt 0.243303 0.667251
vt 0.221183 0.577114
vt 0.262765 0.689532
vt -0.019995 0.010497
vt 1.020428 0.012117
vt 0.345933 0.667355
vt 0.332331 0.577348
vt 0.357005 0.689429
vt -0.019581 0.005022
vt 1.020361 0.012086
vt 0.448228 0.667267
vt 0.443534 0.577328
vt 0.451316 0.689432
vt -0.019624 0.005013
vt 1.020244 0.012099
vt 0.550721 0.667247
vt 0.554740 0.577327
vt 0.545633 0.689392
vt -0.019642 0.005068
vt 1.020131 0.012152
vt 0.653246 0.667213
vt 0.665945 0.577327
vt 0.640026 0.689331
vt -0.019628 0.005160
vt 1.020075 0.012219
vt 0.755924 0.667183
vt 0.777152 0.577329
vt 0.735043 0.689281
vt -0.019586 0.005248
vt 1.020103 0.012268
vt 0.972558 1.004930
vt 0.022472 0.997655
vt -0.025240 -0.005262
vt 1.025156 0.001827
vt 0.022388 0.997701
vt -0.024237 -0.005183
vt 1.025130 0.001872
vt 0.972637 1.004907
vt 0.978328 0.997866
vt 0.022162 0.998257
vt -0.024291 -0.005253
vt 1.025037 -0.005373
vt 0.972512 1.005270
vt 0.022258 0.998548
vt -0.024240 -0.005322
vt 1.025169 0.001672
vt 0.022607 0.997715
vt -0.024157 -0.005226
vt 1.025105 0.001856
vt 0.972705 1.005022
vt 0.972562 1.005417
vt 0.022451 0.998667
vt -0.024159 -0.005376
vt 1.025152 0.001636
vt 0.972634 1.005457
vt 0.022653 0.998570
vt -0.024085 -0.005394
vt 1.025128 0.001651
vt 0.972699 1.005379
vt 0.022776 0.998294
vt -0.024056 -0.005368
vt 1.025106 0.001711
vt 0.972728 1.005211
vt 0.022760 0.997956
vt -0.024085 -0.005302
vt 1.025096 0.001791
vt 1.000000 1.000000
vt 0.000000 1.000000
vt 0.000000 0.000000
vt 1.000000 0.000000
vt 0.000000 1.000000
vt 0.000000 0.000000
vt 1.000000 0.000000
vt 1.000000 1.000000
vt 1.000000 1.000000
vt 0.000000 1.000000
vt 0.000000 0.000000
vt 1.000000 0.000000
vt 1.000000 1.000000
vt 0.000000 1.000000
vt 0.000000 0.000000
vt 1.000000 0.000000
vt 0.000000 1.000000
vt 0.000000 0.000000
vt 1.000000 0.000000
vt 1.000000 1.000000
vt 1.000000 1.000000
vt 0.000000 1.000000
vt 0.000000 0.000000
vt 1.000000 0.000000
vt 1.000000 1.000000
vt 0.000000 1.000000
vt 0.000000 0.000000
vt 1.000000 0.000000
vt 1.000000 1.000000
vt 0.000000 1.000000
vt 0.000000 0.000000
vt 1.000000 0.000000
vt 1.000000 1.000000
vt 0.000000 1.000000
vt 0.000000 0.000000
vt 1.000000 0.000000
vt 0.083772 0.659432
vt 0.914413 0.655017
vt 0.183157 0.655056
vt 0.288601 0.655077
vt 0.394007 0.655086
vt 0.499400 0.655077
vt 0.604816 0.655056
vt 0.710268 0.655032
vt 0.815738 0.655016
vt 0.230292 0.720391
vt 0.291059 0.719277
vt 0.357578 0.719306
vt 0.424044 0.719318
vt 0.490494 0.719306
vt 0.556975 0.719277
vt 0.623503 0.719244
vt 0.690055 0.719223
vt 0.799008 0.719428
vt 0.058143 0.586560
vt 0.165743 0.582084
vt 0.276854 0.582084
vt 0.387965 0.582084
vt 0.499076 0.582084
vt 0.610187 0.582084
vt 0.721298 0.582084
vt 0.832409 0.582085
vt 0.936935 0.581699
vt 0.931428 0.626359
vt 0.064271 0.636274
vt 0.169802 0.626425
vt 0.876989 0.689277
vt 0.129190 0.690870
vt 0.215267 0.689297
vt 0.785476 0.689262
vt 0.828231 0.626417
vt 0.279544 0.626431
vt 0.309702 0.689230
vt 0.389276 0.626434
vt 0.404204 0.689414
vt 0.499005 0.626429
vt 0.498525 0.689395
vt 0.608740 0.626423
vt 0.592887 0.689342
vt 0.718484 0.626418
vt 0.687392 0.689284
vt 0.096364 0.670299
vt 0.903654 0.667298
vt 0.192114 0.667149
vt 0.294568 0.667220
vt 0.397148 0.667327
vt 0.499541 0.667217
vt 0.602064 0.667192
vt 0.704640 0.667158
vt 0.807668 0.667143
vt 0.058225 0.582381
vt 0.165602 0.576765
vt 0.276763 0.577167
vt 0.387936 0.576964
vt 0.499113 0.576963
vt 0.610291 0.576962
vt 0.721468 0.576963
vt 0.832668 0.576960
vt 0.937217 0.576753
vt 0.496815 0.962053
vt 0.499324 0.962308
vt 0.496381 0.962303
vt 0.497349 0.962062
vt 0.496682 0.962454
vt 0.497191 0.962521
vt 0.497675 0.962473
vt 0.497909 0.962333
vt 0.497781 0.962171
vt 0.500000 0.500000
vt 0.500000 0.500000
vt 0.500000 0.500000
vt 0.500000 0.500000
vt 0.500000 0.500000
vt 0.500000 0.500000
vt 0.500000 0.500000
vt 0.500000 0.500000
vt 0.500000 0.500000
vt 0.500000 0.444444
vt 0.500000 0.444444
vt 0.500000 0.444444
vt 0.500000 0.444444
vt 0.500000 0.444444
vt 0.500000 0.444444
vt 0.500000 0.444444
vt 0.500000 0.444444
vt 0.500000 0.444444
vt 0.133350 0.687664
vt 0.131943 0.656143
vt 0.064416 0.628222
vt 0.037121 0.663820
vt 0.960353 0.655023
vt 0.931252 0.622363
vt 0.866774 0.655014
vt 0.874352 0.685445
vt 0.218963 0.685456
vt 0.235885 0.655068
vt 0.169972 0.622468
vt 0.311843 0.685490
vt 0.341308 0.655083
vt 0.279667 0.622473
vt 0.404660 0.685504
vt 0.446702 0.655084
vt 0.389352 0.622475
vt 0.497459 0.685490
vt 0.552103 0.655068
vt 0.499033 0.622473
vt 0.590294 0.685456
vt 0.657537 0.655043
vt 0.608721 0.622468
vt 0.683185 0.685417
vt 0.763002 0.655022
vt 0.718417 0.622462
vt 0.776105 0.685392
vt 0.828118 0.622459
vt 0.285949 0.728432
vt 0.269987 0.738726
vt 0.773897 0.737314
vt 0.342727 0.728174
vt 0.400906 0.728193
vt 0.459052 0.728193
vt 0.517205 0.728174
vt 0.575397 0.728145
vt 0.633624 0.728120
vt 0.660384 0.736998
vt 0.731131 0.737302
vt 0.111065 0.583203
vt 0.058288 0.561297
vt 0.006100 0.591036
vt 0.985904 0.581314
vt 0.221298 0.582084
vt 0.165876 0.558225
vt 0.332409 0.582084
vt 0.276987 0.558225
vt 0.443520 0.582084
vt 0.388098 0.558225
vt 0.554631 0.582084
vt 0.499209 0.558224
vt 0.665743 0.582084
vt 0.610320 0.558224
vt 0.776854 0.582085
vt 0.721431 0.558225
vt 0.886318 0.581988
vt 0.832542 0.558225
vt 0.936990 0.557632
vt 0.979753 0.626300
vt 0.013615 0.646126
vt 0.881467 0.626403
vt 0.047368 0.608923
vt 0.115982 0.628886
vt 0.224675 0.626428
vt 0.502470 -0.027733
vt 0.502324 -0.027415
vt 0.502316 -0.028363
vt 0.502682 -0.027725
vt 0.773357 0.626417
vt 0.334411 0.626434
vt 0.499818 -0.027291
vt 0.444141 0.626432
vt 0.502663 -0.028787
vt 0.553872 0.626426
vt 0.502856 -0.028658
vt 0.663611 0.626420
vt 0.502936 -0.028340
vt 0.502865 -0.027969
vt 0.504699 -0.037135
vt 0.499290 -0.037464
vt 0.504238 -0.037060
vt 0.505262 -0.037126
vt 0.504555 -0.036985
vt 0.505095 -0.036945
vt 0.505609 -0.036968
vt 0.505856 -0.037034
vt 0.505720 -0.037094
vt 1.000000 0.500000
vt 0.000000 0.500000
vt 0.500000 1.000000
vt 0.500000 0.000000
vt 0.000000 0.500000
vt 1.000000 0.500000
vt 1.000000 0.500000
vt 0.000000 0.500000
vt 0.500000 1.000000
vt 0.500000 0.000000
vt 1.000000 0.500000
vt 0.000000 0.500000
vt 0.500000 1.000000
vt 0.500000 0.000000
vt 0.500000 1.000000
vt 0.500000 0.000000
vt 0.000000 0.500000
vt 1.000000 0.500000
vt 1.000000 0.500000
vt 0.000000 0.500000
vt 0.500000 1.000000
vt 0.500000 0.000000
vt 1.000000 0.500000
vt 0.000000 0.500000
vt 0.500000 1.000000
vt 0.500000 0.000000
vt 1.000000 0.500000
vt 0.000000 0.500000
vt 0.500000 1.000000
vt 0.500000 0.000000
vt 1.000000 0.500000
vt 0.000000 0.500000
vt 0.500000 1.000000
vt 0.500000 0.000000
vt 0.500000 1.000000
vt 0.500000 0.000000
vn 0.126496 -0.986263 -0.106229
vn 0.086198 -0.985004 -0.149456
vn 0.281848 -0.825989 -0.488163
vn 0.433342 -0.824637 -0.363578
vn 0.028633 -0.986206 -0.163025
vn 0.098275 -0.824362 -0.557467
vn 0.148867 -0.512585 -0.845633
vn 0.429176 -0.512295 -0.743882
vn 0.657576 -0.512649 -0.552073
vn 0.806904 -0.512344 -0.293956
vn 0.529433 -0.826194 -0.192624
vn 0.858583 -0.512674 -0.000219
vn 0.565504 -0.824745 0.000125
vn 0.165052 -0.986285 0.000019
vn 0.161899 -0.985045 -0.058946
vn -0.030114 -0.984940 -0.170252
vn -0.097972 -0.825674 -0.555575
vn -0.083035 -0.986142 -0.143628
vn -0.283264 -0.824047 -0.490620
vn -0.429544 -0.512511 -0.743522
vn -0.149401 -0.512221 -0.845760
vn -0.132725 -0.984884 -0.111300
vn -0.432453 -0.825396 -0.362914
vn -0.156143 -0.986100 -0.056803
vn -0.532612 -0.823841 -0.193934
vn -0.807001 -0.512461 -0.293485
vn -0.658117 -0.512153 -0.551889
vn -0.173343 -0.984862 -0.000021
vn -0.564716 -0.825285 -0.000111
vn -0.156156 -0.986100 0.056768
vn -0.532697 -0.823841 0.193699
vn -0.806851 -0.512461 0.293896
vn -0.858910 -0.512126 0.000243
vn -0.132753 -0.984884 0.111268
vn -0.432595 -0.825396 0.362744
vn -0.083067 -0.986142 0.143610
vn -0.283480 -0.824047 0.490495
vn -0.429164 -0.512511 0.743741
vn -0.657804 -0.512154 0.552261
vn -0.030156 -0.984940 0.170245
vn -0.098190 -0.825674 0.555537
vn 0.028595 -0.986206 0.163031
vn 0.098029 -0.824362 0.557511
vn 0.149299 -0.512585 0.845557
vn -0.148922 -0.512221 0.845844
vn 0.086161 -0.985004 0.149477
vn 0.281656 -0.825989 0.488274
vn 0.126472 -0.986263 0.106258
vn 0.433181 -0.824637 0.363769
vn 0.657858 -0.512649 0.551737
vn 0.429597 -0.512296 0.743639
vn 0.161884 -0.985045 0.058985
vn 0.529357 -0.826194 0.192832
vn 0.807070 -0.512344 0.293499
vn 0.000005 -1.000000 0.000000
vn 0.000073 -1.000000 -0.000524
vn 0.005546 -0.999938 -0.009670
vn 0.000381 -1.000000 -0.000336
vn -0.000291 -1.000000 -0.000470
vn -0.001975 -0.999938 -0.010993
vn -0.000537 -1.000000 -0.000188
vn -0.008586 -0.999937 -0.007173
vn -0.000537 -1.000000 0.000188
vn -0.011196 -0.999937 -0.000002
vn -0.000291 -1.000000 0.000471
vn -0.008588 -0.999937 0.007171
vn 0.000073 -1.000000 0.000524
vn -0.001979 -0.999938 0.010992
vn 0.000381 -1.000000 0.000336
vn 0.005543 -0.999938 0.009671
vn 0.000500 -1.000000 -0.000000
vn 0.010457 -0.999938 0.003822
vn 0.010458 -0.999938 -0.003819
vn 0.163806 -0.305185 -0.938099
vn 0.474821 -0.304914 -0.825574
vn 0.170888 -0.029676 -0.984844
vn 0.497454 -0.029646 -0.866984
vn 0.763953 -0.029672 -0.644589
vn 0.728474 -0.305202 -0.613334
vn -0.477521 -0.305165 -0.823923
vn -0.166934 -0.304894 -0.937642
vn -0.502139 -0.029675 -0.864278
vn -0.176215 -0.029648 -0.983905
vn -0.895417 -0.305149 -0.324211
vn -0.730592 -0.304874 -0.610973
vn -0.940208 -0.029671 -0.339307
vn -0.767432 -0.029644 -0.640445
vn -0.894324 -0.305151 0.327212
vn -0.952394 -0.304867 0.001591
vn -0.938343 -0.029675 0.344429
vn -0.999557 -0.029644 0.002685
vn -0.474755 -0.305167 0.825519
vn -0.728546 -0.304877 0.613410
vn -0.497417 -0.029680 0.867004
vn -0.763979 -0.029649 0.644559
vn 0.166951 -0.305188 0.937543
vn -0.163801 -0.304897 0.938194
vn 0.176257 -0.029681 0.983897
vn -0.170926 -0.029653 0.984838
vn 0.730526 -0.305204 0.610886
vn 0.477576 -0.304917 0.823982
vn 0.767458 -0.029677 0.640413
vn 0.502106 -0.029651 0.864298
vn 0.952284 -0.305208 -0.001597
vn 0.895485 -0.304928 0.324232
vn 0.999556 -0.029670 -0.002726
vn 0.940195 -0.029645 0.339344
vn 0.894397 -0.304926 -0.327222
vn 0.938358 -0.029642 -0.344391
vn 0.731014 0.294005 -0.615776
vn 0.613138 0.599207 -0.514794
vn 0.752300 0.599130 -0.274022
vn 0.897617 0.293744 -0.328630
vn 0.407391 0.846828 -0.341929
vn 0.500663 0.846243 -0.182237
vn 0.532681 0.846316 0.000065
vn 0.800886 0.598817 -0.000083
vn 0.955799 0.294014 -0.001833
vn 0.399780 0.599863 -0.693066
vn 0.265521 0.847217 -0.460132
vn 0.476382 0.293727 -0.828725
vn 0.164181 0.293984 -0.941604
vn 0.138583 0.600185 -0.787764
vn 0.091863 0.848136 -0.521754
vn -0.139125 0.600983 -0.787060
vn -0.091972 0.848708 -0.520803
vn -0.167766 0.293707 -0.941059
vn -0.479486 0.293968 -0.826847
vn -0.399759 0.601299 -0.691832
vn -0.263796 0.849615 -0.456690
vn 0.295947 0.922264 -0.248685
vn 0.364633 0.921628 -0.132835
vn 0.388169 0.921588 0.000061
vn 0.192192 0.922902 -0.333638
vn 0.065990 0.923948 -0.376783
vn -0.066483 0.924797 -0.374607
vn -0.189335 0.925797 -0.327190
vn 0.364568 0.921639 0.132939
vn 0.500601 0.846257 0.182342
vn 0.295836 0.922285 0.248740
vn 0.407279 0.846854 0.341997
vn 0.752377 0.599132 0.273806
vn 0.898858 0.293741 0.325225
vn 0.613243 0.599211 0.514664
vn 0.733371 0.293999 0.612969
vn -0.611871 0.601963 -0.513083
vn -0.403573 0.850011 -0.338542
vn -0.733422 0.293695 -0.613054
vn -0.898798 0.293962 -0.325190
vn -0.750384 0.602017 -0.272944
vn -0.494141 0.850578 -0.179838
vn -0.288608 0.926403 -0.241832
vn -0.352570 0.926964 -0.128191
vn -0.798236 0.602345 0.000116
vn -0.525924 0.850531 -0.000046
vn -0.955899 0.293690 0.001810
vn -0.897547 0.293957 0.328632
vn -0.750327 0.602016 0.273103
vn -0.494155 0.850592 0.179733
vn -0.375000 0.927025 -0.000036
vn -0.352577 0.926972 0.128111
vn -0.611722 0.601964 0.513259
vn -0.403605 0.850037 0.338438
vn -0.731094 0.293689 0.615831
vn -0.476314 0.293962 0.828681
vn -0.399612 0.601303 0.691914
vn -0.263867 0.849650 0.456585
vn -0.288633 0.926419 0.241741
vn -0.189388 0.925820 0.327093
vn -0.138896 0.600990 0.787095
vn -0.092067 0.848748 0.520721
vn -0.164198 0.293700 0.941690
vn 0.167790 0.293978 0.940969
vn 0.138748 0.600195 0.787728
vn 0.091736 0.848176 0.521711
vn -0.066569 0.924826 0.374521
vn 0.065875 0.923979 0.376728
vn 0.399976 0.599871 0.692946
vn 0.265396 0.847253 0.460138
vn 0.479521 0.293720 0.826915
vn 0.192066 0.922930 0.333634
vn 0.256331 0.962091 -0.093137
vn 0.273268 0.961938 0.000047
vn 0.208086 0.962461 -0.174265
vn 0.134897 0.963063 -0.233051
vn 0.046690 0.963740 -0.262728
vn -0.045557 0.964482 -0.260191
vn -0.130646 0.965118 -0.226891
vn 0.256300 0.962091 0.093224
vn 0.208030 0.962461 0.174332
vn -0.198881 0.965664 -0.167151
vn -0.242994 0.965975 -0.088580
vn -0.258116 0.966114 -0.000022
vn -0.243013 0.965974 0.088535
vn -0.198919 0.965663 0.167111
vn -0.130701 0.965117 0.226862
vn -0.045624 0.964482 0.260180
vn 0.046617 0.963740 0.262740
vn 0.134827 0.963063 0.233090
vn 0.107429 0.993445 -0.039057
vn 0.114695 0.993401 0.000021
vn 0.087273 0.993497 -0.073126
vn 0.037389 0.998810 -0.031312
vn 0.047877 0.998702 -0.017386
vn 0.048999 0.998799 0.000010
vn 0.056437 0.993623 -0.097616
vn 0.019518 0.993731 -0.110083
vn 0.008431 0.998838 -0.047452
vn 0.025310 0.998725 -0.043689
vn -0.019115 0.993881 -0.108794
vn -0.054699 0.993982 -0.094914
vn -0.023737 0.998868 -0.041215
vn -0.008575 0.998758 -0.049080
vn 0.107416 0.993445 0.039096
vn 0.087251 0.993496 0.073157
vn 0.047872 0.998702 0.017406
vn 0.037380 0.998810 0.031326
vn -0.083101 0.994095 -0.069788
vn -0.101592 0.994137 -0.037017
vn -0.044306 0.998888 -0.016148
vn -0.037697 0.998786 -0.031695
vn -0.107772 0.994176 -0.000008
vn -0.101600 0.994137 0.037000
vn -0.044309 0.998887 0.016142
vn -0.049029 0.998797 -0.000003
vn -0.083118 0.994094 0.069774
vn -0.054723 0.993981 0.094906
vn -0.023747 0.998868 0.041212
vn -0.037705 0.998786 0.031690
vn -0.019144 0.993880 0.108794
vn 0.019487 0.993730 0.110094
vn 0.008418 0.998838 0.047458
vn -0.008588 0.998758 0.049081
vn 0.056409 0.993622 0.097637
vn 0.025298 0.998724 0.043700
vn 0.000055 1.000000 0.000001
s 1
g pTorus2
usemtl initialShadingGroup
f 193/234/183 302/465/184 374/375/185 305/468/186
f 302/465/184 195/237/187 303/466/188 374/375/185
f 374/375/185 303/466/188 194/236/189 304/467/190
f 305/468/186 374/375/185 304/467/190 192/232/191
f 192/233/191 306/470/192 375/376/193 305/469/186
f 306/470/192 208/250/194 307/471/195 375/376/193
f 375/376/193 307/471/195 209/251/196 308/472/197
f 305/469/186 375/376/193 308/472/197 193/235/183
f 195/237/187 309/473/198 376/377/199 303/466/188
f 309/473/198 197/239/200 310/474/201 376/377/199
f 376/377/199 310/474/201 196/238/202 311/475/203
f 303/466/188 376/377/199 311/475/203 194/236/189
f 197/239/200 312/476/204 377/378/205 310/474/201
f 312/476/204 199/241/206 313/477/207 377/378/205
f 377/378/205 313/477/207 198/240/208 314/478/209
f 310/474/201 377/378/205 314/478/209 196/238/202
f 199/241/206 315/479/210 378/379/211 313/477/207
f 315/479/210 201/243/212 316/480/213 378/379/211
f 378/379/211 316/480/213 200/242/214 317/481/215
f 313/477/207 378/379/211 317/481/215 198/240/208
f 201/243/212 318/482/216 379/380/217 316/480/213
f 318/482/216 203/245/218 319/483/219 379/380/217
f 379/380/217 319/483/219 202/244/220 320/484/221
f 316/480/213 379/380/217 320/484/221 200/242/214
f 203/245/218 321/485/222 380/381/223 319/483/219
f 321/485/222 205/247/224 322/486/225 380/381/223
f 380/381/223 322/486/225 204/246/226 323/487/227
f 319/483/219 380/381/223 323/487/227 202/244/220
f 205/247/224 324/488/228 381/382/229 322/486/225
f 324/488/228 207/249/230 325/489/231 381/382/229
f 381/382/229 325/489/231 206/248/232 326/490/233
f 322/486/225 381/382/229 326/490/233 204/246/226
f 207/249/230 327/491/234 382/383/235 325/489/231
f 327/491/234 209/251/196 307/471/195 382/383/235
f 382/383/235 307/471/195 208/250/194 328/492/236
f 325/489/231 382/383/235 328/492/236 206/248/232
f 210/252/237 329/493/238 383/384/239 330/494/240
f 195/237/187 302/465/184 383/384/239 329/493/238
f 193/234/183 330/494/240 383/384/239 302/465/184
f 210/252/237 331/496/241 384/385/242 329/493/238
f 197/239/200 309/473/198 384/385/242 331/496/241
f 195/237/187 329/493/238 384/385/242 309/473/198
f 210/252/237 332/497/243 385/386/244 331/496/241
f 199/241/206 312/476/204 385/386/244 332/497/243
f 197/239/200 331/496/241 385/386/244 312/476/204
f 210/252/237 333/498/245 386/387/246 332/497/243
f 201/243/212 315/479/210 386/387/246 333/498/245
f 199/241/206 332/497/243 386/387/246 315/479/210
f 210/252/237 334/499/247 387/388/248 333/498/245
f 203/245/218 318/482/216 387/388/248 334/499/247
f 201/243/212 333/498/245 387/388/248 318/482/216
f 210/252/237 335/500/249 388/389/250 334/499/247
f 205/247/224 321/485/222 388/389/250 335/500/249
f 203/245/218 334/499/247 388/389/250 321/485/222
f 210/252/237 336/501/251 389/390/252 335/500/249
f 207/249/230 324/488/228 389/390/252 336/501/251
f 205/247/224 335/500/249 389/390/252 324/488/228
f 210/252/237 337/502/253 390/391/254 336/501/251
f 209/251/196 327/491/234 390/391/254 337/502/253
f 207/249/230 336/501/251 390/391/254 327/491/234
f 210/253/237 330/495/240 391/392/255 337/503/253
f 193/235/183 308/472/197 391/392/255 330/495/240
f 209/251/196 337/503/253 391/392/255 308/472/197
f 194/236/189 338/504/256 392/393/257 304/467/190
f 338/504/256 184/224/258 339/505/259 392/393/257
f 392/393/257 339/505/259 183/222/260 340/506/261
f 304/467/190 392/393/257 340/506/261 192/232/191
f 196/238/202 341/508/262 393/394/263 311/475/203
f 341/508/262 185/225/264 342/509/265 393/394/263
f 393/394/263 342/509/265 184/224/258 338/504/256
f 311/475/203 393/394/263 338/504/256 194/236/189
f 198/240/208 343/510/266 394/395/267 314/478/209
f 343/510/266 186/226/268 344/511/269 394/395/267
f 394/395/267 344/511/269 185/225/264 341/508/262
f 314/478/209 394/395/267 341/508/262 196/238/202
f 200/242/214 345/512/270 395/396/271 317/481/215
f 345/512/270 187/227/272 346/513/273 395/396/271
f 395/396/271 346/513/273 186/226/268 343/510/266
f 317/481/215 395/396/271 343/510/266 198/240/208
f 202/244/220 347/514/274 396/397/275 320/484/221
f 347/514/274 188/228/276 348/515/277 396/397/275
f 396/397/275 348/515/277 187/227/272 345/512/270
f 320/484/221 396/397/275 345/512/270 200/242/214
f 204/246/226 349/516/278 397/398/279 323/487/227
f 349/516/278 189/229/280 350/517/281 397/398/279
f 397/398/279 350/517/281 188/228/276 347/514/274
f 323/487/227 397/398/279 347/514/274 202/244/220
f 206/248/232 351/518/282 398/399/283 326/490/233
f 351/518/282 190/230/284 352/519/285 398/399/283
f 398/399/283 352/519/285 189/229/280 349/516/278
f 326/490/233 398/399/283 349/516/278 204/246/226
f 208/250/194 353/520/286 399/400/287 328/492/236
f 353/520/286 191/231/288 354/521/289 399/400/287
f 399/400/287 354/521/289 190/230/284 351/518/282
f 328/492/236 399/400/287 351/518/282 206/248/232
f 192/233/191 340/507/261 400/401/290 306/470/192
f 340/507/261 183/223/260 355/522/291 400/401/290
f 400/401/290 355/522/291 191/231/288 353/520/286
f 306/470/192 400/401/290 353/520/286 208/250/194
f 211/254/292 356/523/293 401/402/294 359/437/295
f 356/523/293 212/257/296 357/421/297 401/402/294
f 401/402/294 357/421/297 217/268/298 358/525/299
f 359/437/295 401/402/294 358/525/299 219/272/300
f 212/258/296 356/524/293 402/403/301 362/420/302
f 356/524/293 211/256/292 360/526/303 402/403/301
f 402/403/301 360/526/303 214/260/304 361/527/305
f 362/420/302 402/403/301 361/527/305 213/259/306
f 213/259/306 361/527/305 403/404/307 365/422/308
f 361/527/305 214/260/304 363/430/309 403/404/307
f 403/404/307 363/430/309 221/274/310 364/528/311
f 365/422/308 403/404/307 364/528/311 220/273/312
f 212/257/296 215/261/313 366/405/314 357/421/297
f 357/421/297 366/405/314 218/269/315 217/268/298
f 215/262/313 212/258/296 362/420/302 367/406/316
f 367/406/316 362/420/302 213/259/306 216/265/317
f 216/265/317 213/259/306 365/422/308 368/407/318
f 368/407/318 365/422/308 220/273/312 222/275/319
f 217/268/298 218/269/315 369/408/320 370/428/321
f 370/428/321 369/408/320 237/300/322 235/298/323
f 219/272/300 358/525/299 404/409/324 372/436/325
f 358/525/299 217/268/298 370/428/321 404/409/324
f 404/409/324 370/428/321 235/298/323 371/533/326
f 372/436/325 404/409/324 371/533/326 236/299/327
f 220/273/312 364/528/311 405/410/328 257/423/329
f 364/528/311 221/274/310 373/431/330 405/410/328
f 405/410/328 373/431/330 224/279/331 256/534/332
f 257/423/329 405/410/328 256/534/332 223/278/333
f 222/275/319 220/273/312 257/423/329 258/411/334
f 258/411/334 257/423/329 223/278/333 225/280/335
f 223/278/333 256/534/332 406/412/336 261/424/337
f 256/534/332 224/279/331 259/432/338 406/412/336
f 406/412/336 259/432/338 227/284/339 260/536/340
f 261/424/337 406/412/336 260/536/340 226/283/341
f 225/280/335 223/278/333 261/424/337 262/413/342
f 262/413/342 261/424/337 226/283/341 228/285/343
f 226/283/341 260/536/340 407/414/344 265/425/345
f 260/536/340 227/284/339 263/433/346 407/414/344
f 407/414/344 263/433/346 230/289/347 264/538/348
f 265/425/345 407/414/344 264/538/348 229/288/349
f 228/285/343 226/283/341 265/425/345 266/415/350
f 266/415/350 265/425/345 229/288/349 231/290/351
f 229/288/349 264/538/348 408/416/352 269/426/353
f 264/538/348 230/289/347 267/434/354 408/416/352
f 408/416/352 267/434/354 233/294/355 268/540/356
f 269/426/353 408/416/352 268/540/356 232/293/357
f 231/290/351 229/288/349 269/426/353 270/417/358
f 270/417/358 269/426/353 232/293/357 234/295/359
f 232/293/357 268/540/356 409/418/360 272/427/361
f 268/540/356 233/294/355 271/435/362 409/418/360
f 409/418/360 271/435/362 236/299/327 371/533/326
f 272/427/361 409/418/360 371/533/326 235/298/323
f 234/295/359 232/293/357 272/427/361 273/419/363
f 273/419/363 272/427/361 235/298/323 237/300/322
f 360/429/303 211/255/292 183/222/260 339/505/259
f 214/260/304 360/429/303 339/505/259 184/224/258
f 363/430/309 214/260/304 184/224/258 342/509/265
f 221/274/310 363/430/309 342/509/265 185/225/264
f 373/431/330 221/274/310 185/225/264 344/511/269
f 224/279/331 373/431/330 344/511/269 186/226/268
f 259/432/338 224/279/331 186/226/268 346/513/273
f 227/284/339 259/432/338 346/513/273 187/227/272
f 263/433/346 227/284/339 187/227/272 348/515/277
f 230/289/347 263/433/346 348/515/277 188/228/276
f 267/434/354 230/289/347 188/228/276 350/517/281
f 233/294/355 267/434/354 350/517/281 189/229/280
f 271/435/362 233/294/355 189/229/280 352/519/285
f 236/299/327 271/435/362 352/519/285 190/230/284
f 372/436/325 236/299/327 190/230/284 354/521/289
f 219/272/300 372/436/325 354/521/289 191/231/288
f 359/437/295 219/272/300 191/231/288 355/522/291
f 211/254/292 359/437/295 355/522/291 183/223/260
f 218/270/315 366/529/314 274/438/364 239/307/365
f 366/529/314 215/264/313 238/303/366 274/438/364
f 215/263/313 367/530/316 275/439/367 238/304/366
f 367/530/316 216/267/317 240/311/368 275/439/367
f 216/266/317 368/531/318 276/440/369 240/312/368
f 368/531/318 222/277/319 241/315/370 276/440/369
f 237/301/322 369/532/320 277/441/371 242/319/372
f 369/532/320 218/271/315 239/310/365 277/441/371
f 222/276/319 258/535/334 278/442/373 241/316/370
f 258/535/334 225/282/335 243/323/374 278/442/373
f 225/281/335 262/537/342 279/443/375 243/324/374
f 262/537/342 228/287/343 244/327/376 279/443/375
f 228/286/343 266/539/350 280/444/377 244/328/376
f 266/539/350 231/292/351 245/331/378 280/444/377
f 231/291/351 270/541/358 281/445/379 245/332/378
f 270/541/358 234/297/359 246/335/380 281/445/379
f 234/296/359 273/542/363 282/446/381 246/336/380
f 273/542/363 237/302/322 242/322/372 282/446/381
f 239/308/365 274/543/364 410/447/382 285/556/383
f 274/543/364 238/306/366 283/552/384 410/447/382
f 410/447/382 283/552/384 247/339/385 284/554/386
f 285/556/383 410/447/382 284/554/386 248/343/387
f 238/305/366 275/544/367 411/448/388 283/553/384
f 275/544/367 240/314/368 286/558/389 411/448/388
f 411/448/388 286/558/389 249/347/390 287/560/391
f 283/553/384 411/448/388 287/560/391 247/340/385
f 240/313/368 276/545/369 412/449/392 286/559/389
f 276/545/369 241/318/370 288/562/393 412/449/392
f 412/449/392 288/562/393 250/351/394 289/564/395
f 286/559/389 412/449/392 289/564/395 249/348/390
f 242/320/372 277/546/371 413/450/396 291/568/397
f 277/546/371 239/309/365 285/557/383 413/450/396
f 413/450/396 285/557/383 248/346/387 290/566/398
f 291/568/397 413/450/396 290/566/398 251/355/399
f 241/317/370 278/547/373 414/451/400 288/563/393
f 278/547/373 243/326/374 292/570/401 414/451/400
f 414/451/400 292/570/401 252/359/402 293/572/403
f 288/563/393 414/451/400 293/572/403 250/352/394
f 243/325/374 279/548/375 415/452/404 292/571/401
f 279/548/375 244/330/376 294/574/405 415/452/404
f 415/452/404 294/574/405 253/363/406 295/576/407
f 292/571/401 415/452/404 295/576/407 252/360/402
f 244/329/376 280/549/377 416/453/408 294/575/405
f 280/549/377 245/334/378 296/578/409 416/453/408
f 416/453/408 296/578/409 254/367/410 297/580/411
f 294/575/405 416/453/408 297/580/411 253/364/406
f 245/333/378 281/550/379 417/454/412 296/579/409
f 281/550/379 246/338/380 298/582/413 417/454/412
f 417/454/412 298/582/413 255/371/414 299/584/415
f 296/579/409 417/454/412 299/584/415 254/368/410
f 246/337/380 282/551/381 418/455/416 298/583/413
f 282/551/381 242/321/372 291/569/397 418/455/416
f 418/455/416 291/569/397 251/358/399 300/586/417
f 298/583/413 418/455/416 300/586/417 255/372/414
f 248/344/387 284/555/386 301/456/418
f 247/342/385 301/456/418 284/555/386
f 247/341/385 287/561/391 301/457/418
f 249/350/390 301/457/418 287/561/391
f 249/349/390 289/565/395 301/458/418
f 250/354/394 301/458/418 289/565/395
f 251/356/399 290/567/398 301/459/418
f 248/345/387 301/459/418 290/567/398
f 250/353/394 293/573/403 301/460/418
f 252/362/402 301/460/418 293/573/403
f 252/361/402 295/577/407 301/461/418
f 253/366/406 301/461/418 295/577/407
f 253/365/406 297/581/411 301/462/418
f 254/370/410 301/462/418 297/581/411
f 254/369/410 299/585/415 301/463/418
f 255/374/414 301/463/418 299/585/415
f 255/373/414 300/587/417 301/464/418
f 251/357/399 301/464/418 300/587/417
